# xmcd CD database file
#
# Track frame offsets:
#	150
#	12837
#	34042
#	46956
#	69835
#	101565
#	112534
#	133107
#	154542
#	172810
#	201261
#	211431
#	225745
#	254341
#
# Disc length: 3613 seconds
#
# Revision: 0
# Processed by: cddbd v1.5.1PL0 Copyright (c) Steve Scherf et al.
# Submitted via: CDex 1.51
#
DISCID=ac0e1b0e
DTITLE=Various Artist - Various - Jazz For Vacation
DYEAR=2001
DGENRE=Jazz
TTITLE0=The Girl From Ipanema - Charlie Byrd
TTITLE1=Aguas De Marco - Stan Getz
TTITLE2=Fim Da Linha - Baden Powell
TTITLE3=Falsa Bahiana - Stan Getz
TTITLE4=Autum Leaves - Chet Baker
TTITLE5=Bossa Nova U.S.A. - Dave Brubeck
TTITLE6=Meu Violao - Yoshiro Nakamura
TTITLE7=Pebble Beach - Toku
TTITLE8=Ca Et La - T-Square
TTITLE9=TDL - Corbett Wall
TTITLE10=Duet For Lovers - Sadao Watanabe
TTITLE11=My Cherie Amour - Mongo Santamaria
TTITLE12=La Palma Azul - Dave Brubeck
TTITLE13=Time - Mel Torme
EXTD=YEAR: 2001
EXTT0=
EXTT1=
EXTT2=
EXTT3=
EXTT4=
EXTT5=
EXTT6=
EXTT7=
EXTT8=
EXTT9=
EXTT10=
EXTT11=
EXTT12=
EXTT13=
PLAYORDER=
